<mxfile host="Electron" modified="2024-02-25T15:34:59.462Z" agent="Mozilla/5.0 (Windows NT 10.0; Win64; x64) AppleWebKit/537.36 (KHTML, like Gecko) draw.io/23.1.5 Chrome/120.0.6099.109 Electron/28.1.0 Safari/537.36" etag="HD7XHuq-FCv5tPUdyPt4" version="23.1.5" type="device">
  <diagram name="Страница — 1" id="KDn2C2HfBogjI1a8IXT8">
    <mxGraphModel dx="1687" dy="984" grid="1" gridSize="10" guides="1" tooltips="1" connect="1" arrows="1" fold="1" page="1" pageScale="1" pageWidth="827" pageHeight="1169" math="0" shadow="0">
      <root>
        <mxCell id="0" />
        <mxCell id="1" parent="0" />
        <mxCell id="6-txJjY49rwGfKVKocpg-4" style="edgeStyle=orthogonalEdgeStyle;rounded=0;orthogonalLoop=1;jettySize=auto;html=1;entryX=0;entryY=0.5;entryDx=0;entryDy=0;" edge="1" parent="1" source="6-txJjY49rwGfKVKocpg-1" target="6-txJjY49rwGfKVKocpg-3">
          <mxGeometry relative="1" as="geometry">
            <Array as="points">
              <mxPoint x="85" y="255" />
            </Array>
          </mxGeometry>
        </mxCell>
        <mxCell id="6-txJjY49rwGfKVKocpg-5" value="Создать проект" style="edgeLabel;html=1;align=center;verticalAlign=middle;resizable=0;points=[];" vertex="1" connectable="0" parent="6-txJjY49rwGfKVKocpg-4">
          <mxGeometry x="-0.18" y="-2" relative="1" as="geometry">
            <mxPoint as="offset" />
          </mxGeometry>
        </mxCell>
        <mxCell id="6-txJjY49rwGfKVKocpg-7" style="edgeStyle=orthogonalEdgeStyle;rounded=0;orthogonalLoop=1;jettySize=auto;html=1;entryX=0.5;entryY=1;entryDx=0;entryDy=0;" edge="1" parent="1" source="6-txJjY49rwGfKVKocpg-1" target="6-txJjY49rwGfKVKocpg-3">
          <mxGeometry relative="1" as="geometry" />
        </mxCell>
        <mxCell id="6-txJjY49rwGfKVKocpg-8" value="Получение информации о проекте" style="edgeLabel;html=1;align=center;verticalAlign=middle;resizable=0;points=[];" vertex="1" connectable="0" parent="6-txJjY49rwGfKVKocpg-7">
          <mxGeometry x="-0.47" y="1" relative="1" as="geometry">
            <mxPoint as="offset" />
          </mxGeometry>
        </mxCell>
        <mxCell id="6-txJjY49rwGfKVKocpg-1" value="Автор" style="shape=umlActor;verticalLabelPosition=bottom;verticalAlign=top;html=1;outlineConnect=0;" vertex="1" parent="1">
          <mxGeometry x="70" y="320" width="30" height="60" as="geometry" />
        </mxCell>
        <mxCell id="6-txJjY49rwGfKVKocpg-3" value="Проект" style="rhombus;whiteSpace=wrap;html=1;" vertex="1" parent="1">
          <mxGeometry x="340" y="210" width="60" height="90" as="geometry" />
        </mxCell>
        <mxCell id="6-txJjY49rwGfKVKocpg-10" style="edgeStyle=orthogonalEdgeStyle;rounded=0;orthogonalLoop=1;jettySize=auto;html=1;entryX=1;entryY=0.5;entryDx=0;entryDy=0;" edge="1" parent="1" source="6-txJjY49rwGfKVKocpg-9" target="6-txJjY49rwGfKVKocpg-3">
          <mxGeometry relative="1" as="geometry" />
        </mxCell>
        <mxCell id="6-txJjY49rwGfKVKocpg-11" value="Получение всех проектов" style="edgeLabel;html=1;align=center;verticalAlign=middle;resizable=0;points=[];" vertex="1" connectable="0" parent="6-txJjY49rwGfKVKocpg-10">
          <mxGeometry x="-0.2063" relative="1" as="geometry">
            <mxPoint as="offset" />
          </mxGeometry>
        </mxCell>
        <mxCell id="6-txJjY49rwGfKVKocpg-9" value="Инвестор" style="shape=umlActor;verticalLabelPosition=bottom;verticalAlign=top;html=1;outlineConnect=0;" vertex="1" parent="1">
          <mxGeometry x="80" y="525" width="30" height="60" as="geometry" />
        </mxCell>
        <mxCell id="6-txJjY49rwGfKVKocpg-51" style="edgeStyle=orthogonalEdgeStyle;rounded=0;orthogonalLoop=1;jettySize=auto;html=1;entryX=1;entryY=0.5;entryDx=0;entryDy=0;" edge="1" parent="1" source="6-txJjY49rwGfKVKocpg-12" target="6-txJjY49rwGfKVKocpg-50">
          <mxGeometry relative="1" as="geometry" />
        </mxCell>
        <mxCell id="6-txJjY49rwGfKVKocpg-52" value="Получение проекта" style="edgeLabel;html=1;align=center;verticalAlign=middle;resizable=0;points=[];" vertex="1" connectable="0" parent="6-txJjY49rwGfKVKocpg-51">
          <mxGeometry x="-0.0203" y="-1" relative="1" as="geometry">
            <mxPoint as="offset" />
          </mxGeometry>
        </mxCell>
        <mxCell id="6-txJjY49rwGfKVKocpg-12" value="Инвестиции" style="rhombus;whiteSpace=wrap;html=1;" vertex="1" parent="1">
          <mxGeometry x="400" y="720" width="86" height="110" as="geometry" />
        </mxCell>
        <mxCell id="6-txJjY49rwGfKVKocpg-13" value="Автор" style="shape=umlActor;verticalLabelPosition=bottom;verticalAlign=top;html=1;outlineConnect=0;" vertex="1" parent="1">
          <mxGeometry x="80" y="730" width="30" height="60" as="geometry" />
        </mxCell>
        <mxCell id="6-txJjY49rwGfKVKocpg-15" style="edgeStyle=orthogonalEdgeStyle;rounded=0;orthogonalLoop=1;jettySize=auto;html=1;entryX=0.5;entryY=1;entryDx=0;entryDy=0;" edge="1" parent="1" source="6-txJjY49rwGfKVKocpg-14" target="6-txJjY49rwGfKVKocpg-12">
          <mxGeometry relative="1" as="geometry" />
        </mxCell>
        <mxCell id="6-txJjY49rwGfKVKocpg-16" value="Инвестировать" style="edgeLabel;html=1;align=center;verticalAlign=middle;resizable=0;points=[];" vertex="1" connectable="0" parent="6-txJjY49rwGfKVKocpg-15">
          <mxGeometry x="0.1205" relative="1" as="geometry">
            <mxPoint as="offset" />
          </mxGeometry>
        </mxCell>
        <mxCell id="6-txJjY49rwGfKVKocpg-14" value="Инвестор" style="shape=umlActor;verticalLabelPosition=bottom;verticalAlign=top;html=1;outlineConnect=0;" vertex="1" parent="1">
          <mxGeometry x="80" y="940" width="30" height="60" as="geometry" />
        </mxCell>
        <mxCell id="6-txJjY49rwGfKVKocpg-18" value="" style="shape=flexArrow;endArrow=classic;html=1;rounded=0;" edge="1" parent="1">
          <mxGeometry width="50" height="50" relative="1" as="geometry">
            <mxPoint x="500" y="830" as="sourcePoint" />
            <mxPoint x="600" y="830" as="targetPoint" />
          </mxGeometry>
        </mxCell>
        <mxCell id="6-txJjY49rwGfKVKocpg-54" style="edgeStyle=orthogonalEdgeStyle;rounded=0;orthogonalLoop=1;jettySize=auto;html=1;entryX=0.5;entryY=1;entryDx=0;entryDy=0;" edge="1" parent="1" source="6-txJjY49rwGfKVKocpg-19" target="6-txJjY49rwGfKVKocpg-53">
          <mxGeometry relative="1" as="geometry" />
        </mxCell>
        <mxCell id="6-txJjY49rwGfKVKocpg-55" value="Изменение суммы инвестиций" style="edgeLabel;html=1;align=center;verticalAlign=middle;resizable=0;points=[];" vertex="1" connectable="0" parent="6-txJjY49rwGfKVKocpg-54">
          <mxGeometry x="-0.3114" y="-1" relative="1" as="geometry">
            <mxPoint as="offset" />
          </mxGeometry>
        </mxCell>
        <mxCell id="6-txJjY49rwGfKVKocpg-19" value="Инвестиции" style="rhombus;whiteSpace=wrap;html=1;" vertex="1" parent="1">
          <mxGeometry x="1010" y="710" width="86" height="110" as="geometry" />
        </mxCell>
        <mxCell id="6-txJjY49rwGfKVKocpg-28" style="edgeStyle=orthogonalEdgeStyle;rounded=0;orthogonalLoop=1;jettySize=auto;html=1;entryX=0;entryY=0.5;entryDx=0;entryDy=0;" edge="1" parent="1" source="6-txJjY49rwGfKVKocpg-20" target="6-txJjY49rwGfKVKocpg-19">
          <mxGeometry relative="1" as="geometry" />
        </mxCell>
        <mxCell id="6-txJjY49rwGfKVKocpg-29" value="Принятие денежных средств&lt;br&gt;Подтверждение инвстиции" style="edgeLabel;html=1;align=center;verticalAlign=middle;resizable=0;points=[];" vertex="1" connectable="0" parent="6-txJjY49rwGfKVKocpg-28">
          <mxGeometry x="-0.264" y="-2" relative="1" as="geometry">
            <mxPoint as="offset" />
          </mxGeometry>
        </mxCell>
        <mxCell id="6-txJjY49rwGfKVKocpg-20" value="Автор" style="shape=umlActor;verticalLabelPosition=bottom;verticalAlign=top;html=1;outlineConnect=0;" vertex="1" parent="1">
          <mxGeometry x="690" y="735" width="30" height="60" as="geometry" />
        </mxCell>
        <mxCell id="6-txJjY49rwGfKVKocpg-23" value="Инвестор" style="shape=umlActor;verticalLabelPosition=bottom;verticalAlign=top;html=1;outlineConnect=0;" vertex="1" parent="1">
          <mxGeometry x="690" y="930" width="30" height="60" as="geometry" />
        </mxCell>
        <mxCell id="6-txJjY49rwGfKVKocpg-25" style="edgeStyle=orthogonalEdgeStyle;rounded=0;orthogonalLoop=1;jettySize=auto;html=1;entryX=0.5;entryY=1;entryDx=0;entryDy=0;" edge="1" parent="1" source="6-txJjY49rwGfKVKocpg-24" target="6-txJjY49rwGfKVKocpg-19">
          <mxGeometry relative="1" as="geometry" />
        </mxCell>
        <mxCell id="6-txJjY49rwGfKVKocpg-27" value="Принятие денежных средств" style="edgeLabel;html=1;align=center;verticalAlign=middle;resizable=0;points=[];" vertex="1" connectable="0" parent="6-txJjY49rwGfKVKocpg-25">
          <mxGeometry x="-0.5485" y="3" relative="1" as="geometry">
            <mxPoint as="offset" />
          </mxGeometry>
        </mxCell>
        <mxCell id="6-txJjY49rwGfKVKocpg-24" value="Третье лицо" style="shape=umlActor;verticalLabelPosition=bottom;verticalAlign=top;html=1;outlineConnect=0;" vertex="1" parent="1">
          <mxGeometry x="690" y="1050" width="30" height="60" as="geometry" />
        </mxCell>
        <mxCell id="6-txJjY49rwGfKVKocpg-58" style="edgeStyle=orthogonalEdgeStyle;rounded=0;orthogonalLoop=1;jettySize=auto;html=1;entryX=0.5;entryY=1;entryDx=0;entryDy=0;" edge="1" parent="1" source="6-txJjY49rwGfKVKocpg-39" target="6-txJjY49rwGfKVKocpg-57">
          <mxGeometry relative="1" as="geometry" />
        </mxCell>
        <mxCell id="6-txJjY49rwGfKVKocpg-59" value="Изменение суммы инвестиций" style="edgeLabel;html=1;align=center;verticalAlign=middle;resizable=0;points=[];" vertex="1" connectable="0" parent="6-txJjY49rwGfKVKocpg-58">
          <mxGeometry x="-0.0541" y="2" relative="1" as="geometry">
            <mxPoint as="offset" />
          </mxGeometry>
        </mxCell>
        <mxCell id="6-txJjY49rwGfKVKocpg-39" value="Инвестиции" style="rhombus;whiteSpace=wrap;html=1;" vertex="1" parent="1">
          <mxGeometry x="1650" y="760" width="86" height="110" as="geometry" />
        </mxCell>
        <mxCell id="6-txJjY49rwGfKVKocpg-40" style="edgeStyle=orthogonalEdgeStyle;rounded=0;orthogonalLoop=1;jettySize=auto;html=1;entryX=0;entryY=0.5;entryDx=0;entryDy=0;" edge="1" parent="1" source="6-txJjY49rwGfKVKocpg-42" target="6-txJjY49rwGfKVKocpg-39">
          <mxGeometry relative="1" as="geometry" />
        </mxCell>
        <mxCell id="6-txJjY49rwGfKVKocpg-41" value="Подтверждение инвестиции" style="edgeLabel;html=1;align=center;verticalAlign=middle;resizable=0;points=[];" vertex="1" connectable="0" parent="6-txJjY49rwGfKVKocpg-40">
          <mxGeometry x="-0.264" y="-2" relative="1" as="geometry">
            <mxPoint as="offset" />
          </mxGeometry>
        </mxCell>
        <mxCell id="6-txJjY49rwGfKVKocpg-42" value="Автор" style="shape=umlActor;verticalLabelPosition=bottom;verticalAlign=top;html=1;outlineConnect=0;" vertex="1" parent="1">
          <mxGeometry x="1330" y="785" width="30" height="60" as="geometry" />
        </mxCell>
        <mxCell id="6-txJjY49rwGfKVKocpg-47" value="" style="shape=flexArrow;endArrow=classic;html=1;rounded=0;" edge="1" parent="1">
          <mxGeometry width="50" height="50" relative="1" as="geometry">
            <mxPoint x="1141" y="830" as="sourcePoint" />
            <mxPoint x="1241" y="830" as="targetPoint" />
          </mxGeometry>
        </mxCell>
        <mxCell id="6-txJjY49rwGfKVKocpg-49" value="" style="endArrow=classic;html=1;rounded=0;fillColor=#a20025;strokeColor=#6F0000;" edge="1" parent="1">
          <mxGeometry width="50" height="50" relative="1" as="geometry">
            <mxPoint x="930" y="1060" as="sourcePoint" />
            <mxPoint x="1180" y="850" as="targetPoint" />
          </mxGeometry>
        </mxCell>
        <mxCell id="6-txJjY49rwGfKVKocpg-50" value="Проект" style="rhombus;whiteSpace=wrap;html=1;" vertex="1" parent="1">
          <mxGeometry x="160" y="730" width="60" height="90" as="geometry" />
        </mxCell>
        <mxCell id="6-txJjY49rwGfKVKocpg-53" value="Проект" style="rhombus;whiteSpace=wrap;html=1;" vertex="1" parent="1">
          <mxGeometry x="1023" y="470" width="60" height="90" as="geometry" />
        </mxCell>
        <mxCell id="6-txJjY49rwGfKVKocpg-57" value="Проект" style="rhombus;whiteSpace=wrap;html=1;" vertex="1" parent="1">
          <mxGeometry x="1663" y="470" width="60" height="90" as="geometry" />
        </mxCell>
      </root>
    </mxGraphModel>
  </diagram>
</mxfile>
